<svg xmlns="http://www.w3.org/2000/svg" xmlns:xlink="http://www.w3.org/1999/xlink" width="1440" height="780" version="1.1" viewBox="0 0 1440 780"><title>Background Shades</title><desc>Created with Sketch.</desc><defs><radialGradient id="radialGradient-1" cx="50%" cy="0%" r="100%" fx="50%" fy="0%" gradientTransform="translate(0.500000,0.000000),scale(0.541291,1.000000),rotate(90.000000),translate(-0.500000,-0.000000)"><stop offset="0%" stop-color="#FFF"/><stop offset="100%" stop-color="#FFF" stop-opacity="0"/></radialGradient><radialGradient id="radialGradient-2" cx="50%" cy="0%" r="100%" fx="50%" fy="0%" gradientTransform="translate(0.500000,0.000000),scale(0.540849,1.000000),rotate(90.000000),translate(-0.500000,-0.000000)"><stop offset="0%" stop-color="#FFF"/><stop offset="100%" stop-color="#FFF" stop-opacity="0"/></radialGradient><radialGradient id="radialGradient-3" cx="50%" cy="30.542%" r="69.458%" fx="50%" fy="30.542%" gradientTransform="translate(0.500000,0.305417),scale(0.374565,1.000000),rotate(90.000000),scale(1.000000,1.973933),translate(-0.500000,-0.305417)"><stop offset="0%" stop-color="#FFF"/><stop offset="100%" stop-color="#FFF" stop-opacity="0"/></radialGradient><radialGradient id="radialGradient-4" cx="51.011%" cy="53.677%" r="69.458%" fx="51.011%" fy="53.677%" gradientTransform="translate(0.510111,0.536771),scale(0.331005,1.000000),rotate(90.000000),scale(1.000000,1.973933),translate(-0.510111,-0.536771)"><stop offset="0%" stop-color="#FFF"/><stop offset="100%" stop-color="#FFF" stop-opacity="0"/></radialGradient></defs><g id="Page-1" fill="none" fill-rule="evenodd" stroke="none" stroke-width="1"><g id="Nebular-Landing-2.2"><g id="Background-Shades" transform="translate(-1.000000, 0.000000)"><path id="Path-5" fill="url(#radialGradient-1)" d="M1442,291.791719 C1442,68.0210653 728.810681,242.979554 472.055687,0 C440.641707,0.210872459 283.623145,0.210872459 1,0 L1,780 L1440.9486,780 C1441.64953,494.993043 1442,332.25695 1442,291.791719 Z" opacity=".1"/><path id="Path-5" fill="url(#radialGradient-2)" d="M1441.97823,333.23641 C1427.01715,-23 452,517.164884 111.385876,0 C79.9723711,0.210872459 43.177079,0.210872459 1,0 L1,780 L1440.92685,780 C1443.52045,527.224032 1443.87091,378.302835 1441.97823,333.23641 Z" opacity=".1"/><path id="Path-5" fill="url(#radialGradient-3)" d="M1442,438.033075 C1386.38444,-109 676.651038,677.360469 1.00011815,425.936499 C-0.333372716,630.648873 -0.333372716,748.67004 1.00011815,780 L1440.9486,780 C1441.64953,592.483783 1442,478.494808 1442,438.033075 Z" opacity=".1"/><path id="Path-5" fill="url(#radialGradient-4)" d="M1442,517.249573 C1331.13716,-106.06223 1001.10315,845.166542 1.00010305,684.277389 C1.00003435,708.092368 1.00000382,739.992518 1.00001145,779.977839 L1440.92685,779.977839 C1441.64228,645.245589 1442,557.669501 1442,517.249573 Z" opacity=".08"/></g></g></g></svg>